<svg xmlns="http://www.w3.org/2000/svg" viewBox="0 0 800 500" width="800" height="500">
  <!-- Placeholder: Online Attendance System -->
  <defs>
    <linearGradient id="bg" x1="0" y1="0" x2="1" y2="1">
      <stop offset="0" stop-color="#14b8a6"/>
      <stop offset="1" stop-color="#2bb3d9"/>
    </linearGradient>
  </defs>
  <rect width="800" height="500" fill="url(#bg)"/>
  <rect x="90" y="70" width="620" height="360" rx="18" fill="#fff"/>
  <rect x="90" y="70" width="620" height="40" rx="18" fill="#eaf8f6"/>
  <rect x="90" y="92" width="620" height="18" fill="#eaf8f6"/>
  <circle cx="118" cy="90" r="6" fill="#ff6b6b"/><circle cx="138" cy="90" r="6" fill="#ffc94d"/><circle cx="158" cy="90" r="6" fill="#4cd37b"/>
  <rect x="120" y="135" width="180" height="16" rx="8" fill="#9fe3da"/>
  <g fill="#f1f5f9">
    <rect x="120" y="170" width="560" height="40" rx="8"/><rect x="120" y="222" width="560" height="40" rx="8"/>
    <rect x="120" y="274" width="560" height="40" rx="8"/><rect x="120" y="326" width="560" height="40" rx="8"/>
  </g>
  <g fill="#dbe3ea">
    <rect x="140" y="185" width="160" height="10" rx="5"/><rect x="140" y="237" width="130" height="10" rx="5"/>
    <rect x="140" y="289" width="150" height="10" rx="5"/><rect x="140" y="341" width="120" height="10" rx="5"/>
  </g>
  <g>
    <rect x="590" y="180" width="70" height="20" rx="10" fill="#4cd37b"/>
    <rect x="590" y="232" width="70" height="20" rx="10" fill="#4cd37b"/>
    <rect x="590" y="284" width="70" height="20" rx="10" fill="#ffc94d"/>
    <rect x="590" y="336" width="70" height="20" rx="10" fill="#4cd37b"/>
  </g>
</svg>
